<svg width="208" height="219" viewBox="0 0 208 219" fill="none" xmlns="http://www.w3.org/2000/svg">
<g filter="url(#filter0_d)">
<circle cx="104" cy="111" r="100" fill="#68B738"/>
<g clip-path="url(#clip0)">
<path d="M143.68 0H142.92C141.636 0.718392 140.614 1.81987 140 3.14722C138.875 5.28913 138.009 7.55462 137.42 9.89691C137.294 10.6012 136.934 11.244 136.398 11.7241C135.863 12.2042 135.181 12.4945 134.46 12.5493C132.256 12.9253 130.167 13.7949 128.355 15.0917C126.542 16.3884 125.052 18.0779 124 20.0313C122.553 22.5676 121.316 25.2154 120.3 27.9489C117.46 35.233 115.28 42.7546 112.6 50.0981C111.34 53.4433 111.28 53.4433 107.48 53.4433C102.94 53.4433 103.26 52.7505 103.2 57.699C103.2 59.2627 103.68 60.0544 105.36 59.9753C105.88 59.9753 106.66 59.7179 106.86 60.3909C107.06 61.0639 106.38 61.3608 105.98 61.7567C103.609 64.1392 100.607 65.8129 97.32 66.5864C93.52 67.5959 89.64 68.3876 85.94 69.6148C76.44 72.7621 67.66 77.1563 60.82 84.5988C56.8206 89.2214 53.6177 94.4643 51.34 100.117C44 117.219 40.44 135.231 37.68 153.422C36.38 161.953 35.46 170.524 34.76 179.154C34.4 183.39 34 187.685 34 192H100.66C100.771 191.129 100.61 190.245 100.2 189.466C99.5589 187.887 98.5171 186.498 97.1753 185.434C95.8335 184.369 94.237 183.665 92.54 183.39C91.14 183.073 90.98 182.657 91.84 181.569C93.2427 179.716 94.318 177.641 95.02 175.433C98.28 165.912 99.54 155.975 101.12 146.138C102.013 138.624 104.348 131.348 108 124.701C110.849 119.809 114.649 115.523 119.18 112.092C120.84 110.845 120.9 110.845 121.18 112.963C121.38 114.369 121.42 115.814 121.52 117.239C122.12 126.59 122 135.973 121.16 145.306C120.405 152.541 120.304 159.828 120.86 167.08C121.655 175.499 123.174 183.836 125.4 192H152C151.653 189.857 150.656 187.869 149.142 186.3C147.627 184.731 145.667 183.653 143.52 183.212C141.013 182.817 138.45 182.952 136 183.607C134.8 183.885 134.3 183.607 134.2 182.321C133.373 171.842 134.046 161.3 136.2 151.007C138.868 139.125 140.91 127.114 142.32 115.022C142.845 110.139 144.398 105.419 146.88 101.166C149.26 96.9699 151.34 92.6153 153.68 88.3992C154.609 86.8662 155.168 85.1417 155.314 83.3599C155.46 81.5781 155.188 79.7871 154.52 78.1262C153.98 76.7208 153.46 75.2957 152.8 73.9497C150.8 70.0899 148.8 66.2697 146.96 62.3703C145.98 60.3909 146.2 60.1534 148.38 60.094C151.64 60.094 151.64 60.094 151.7 56.8478C151.7 56.4124 151.7 55.9769 151.7 55.5414C151.7 54.1757 151.18 53.4235 149.7 53.5621C148.7 53.5621 147.7 53.5621 146.66 53.5621C145.28 53.5621 144.88 52.988 145.22 51.5827C145.895 49.2981 147.222 47.2551 149.042 45.6995C150.862 44.1438 153.098 43.1418 155.48 42.814C159.911 42.4338 164.376 42.7207 168.72 43.6652C169.221 43.8215 169.765 43.7762 170.232 43.5391C170.7 43.3021 171.055 42.8923 171.22 42.3983C172.02 40.419 172.9 38.4396 173.8 36.4602C174.004 36.109 174.094 35.7044 174.058 35.3008C174.023 34.8973 173.863 34.5144 173.6 34.2037C167.2 26.1674 160.26 18.6656 150.8 13.8557C150.343 13.661 149.942 13.3561 149.635 12.9688C149.328 12.5816 149.123 12.1243 149.04 11.6388C148.505 8.80926 147.653 6.04751 146.5 3.40454C145.959 1.99643 144.969 0.801217 143.68 0V0Z" fill="black"/>
</g>
</g>
<defs>
<filter id="filter0_d" x="0" y="0" width="208" height="219" filterUnits="userSpaceOnUse" color-interpolation-filters="sRGB">
<feFlood flood-opacity="0" result="BackgroundImageFix"/>
<feColorMatrix in="SourceAlpha" type="matrix" values="0 0 0 0 0 0 0 0 0 0 0 0 0 0 0 0 0 0 127 0"/>
<feOffset dy="4"/>
<feGaussianBlur stdDeviation="2"/>
<feColorMatrix type="matrix" values="0 0 0 0 0 0 0 0 0 0 0 0 0 0 0 0 0 0 0.25 0"/>
<feBlend mode="normal" in2="BackgroundImageFix" result="effect1_dropShadow"/>
<feBlend mode="normal" in="SourceGraphic" in2="effect1_dropShadow" result="shape"/>
</filter>
<clipPath id="clip0">
<rect width="140" height="192" fill="white" transform="translate(34)"/>
</clipPath>
</defs>
</svg>
